<?xml version="1.0" encoding="UTF-8"?>
<!DOCTYPE svg PUBLIC "-//W3C//DTD SVG 1.1//EN" "http://www.w3.org/Graphics/SVG/1.1/DTD/svg11.dtd">
<!-- Creator: CorelDRAW X7 -->
<svg xmlns="http://www.w3.org/2000/svg" xml:space="preserve" width="3cm" height="3cm" version="1.1" shape-rendering="geometricPrecision" text-rendering="geometricPrecision" image-rendering="optimizeQuality" fill-rule="evenodd" clip-rule="evenodd"
viewBox="0 0 3000 3000"
 xmlns:xlink="http://www.w3.org/1999/xlink">
 <g id="Layer_x0020_1">
  <metadata id="CorelCorpID_0Corel-Layer"/>
  <line fill="none" stroke="#2B2A29" stroke-width="88.19" stroke-linecap="round" x1="456" y1="2048" x2="2544" y2= "2048" />
  <path fill="none" stroke="#2B2A29" stroke-width="70.55" d="M624 2045c0,-468 392,-848 876,-848 81,0 159,10 233,30m369 202c169,154 274,373 274,616"/>
  <path fill="none" stroke="#2B2A29" stroke-width="52.91" stroke-linecap="round" d="M1184 1453c-119,57 -205,150 -242,263"/>
  <path fill="none" stroke="#2B2A29" stroke-width="52.91" d="M1500 1176c-62,0 -112,-51 -112,-112 0,-62 50,-112 112,-112 62,0 112,50 112,112 0,61 -50,112 -112,112z"/>
  <g id="_1712911005216">
   <g>
    <path fill="#2B2A29" d="M1185 1044c136,-429 -193,-161 -58,-660 2,-9 3,-13 1,-22 -10,7 -30,29 -36,42 -169,356 102,246 93,640z"/>
   </g>
   <path fill="none" d="M1185 1044c82,-412 -222,-219 -85,-625 5,-16 27,-39 28,-57"/>
   <g>
    <path fill="#2B2A29" d="M1072 1165c52,-288 -90,-171 -134,-569 -73,291 73,223 134,569z"/>
   </g>
   <path fill="none" d="M1072 1165c10,-336 -165,-209 -134,-569"/>
  </g>
  <g id="_1712911002528">
   <path fill="none" stroke="#2B2A29" stroke-width="52.91" d="M2063 1432c-98,0 -262,-42 -321,-174 -58,-127 40,-239 79,-439 15,-81 5,-164 -8,-203"/>
   <line fill="none" stroke="#2B2A29" stroke-width="52.91" x1="2063" y1="1432" x2="2063" y2= "2164" />
   <line fill="none" stroke="#2B2A29" stroke-width="52.91" stroke-linecap="round" x1="1794" y1="2232" x2="2333" y2= "2232" />
   <polyline fill="none" stroke="#2B2A29" stroke-width="52.91" stroke-linecap="round" points="1795,2231 2063,2164 2334,2231 "/>
   <path fill="none" stroke="#2B2A29" stroke-width="52.91" d="M2054 1432c99,0 263,-42 322,-174 57,-127 -40,-239 -79,-439 -16,-81 -6,-164 8,-203"/>
   <line fill="none" stroke="#2B2A29" stroke-width="52.91" stroke-linecap="round" x1="1813" y1="616" x2="2305" y2= "616" />
   <line fill="none" stroke="#2B2A29" stroke-width="35.27" x1="1727" y1="1139" x2="2391" y2= "1139" />
  </g>
 </g>
</svg>
